<svg fill="none" viewBox="0 0 24 24" xmlns="http://www.w3.org/2000/svg"><path clip-rule="evenodd" d="m17.0264 18c-3.3734 0-6.1143-2.6892-6.1143-6.0011 0-3.30972 2.7409-5.9989 6.1143-5.9989 3.3755 0 6.1164 2.68918 6.1164 5.9989 0 3.3119-2.7409 6.0011-6.1164 6.0011zm-5.4818-1.3798c-.3608.0853-.7368.1301-1.1237.1301-2.68442 0-4.86452-2.139-4.86452-4.7727 0-2.63586 2.1801-4.7727 4.86452-4.7727.4021 0 .7933.04692 1.1672.13862-1.3781 1.10041-2.26055 2.77658-2.26055 4.65538 0 1.8596.86295 3.5209 2.21705 4.6213zm-5.64262-.8381c-.34342.096-.70424.1472-1.07809.1472-2.1888 0-3.966786-1.7445-3.966786-3.892 0-2.14749 1.777986-3.89193 3.966786-3.89193.33038 0 .65207.04052.96072.11516-1.10418.87649-1.81277 2.21577-1.81277 3.71707 0 1.5525.75858 2.9323 1.93014 3.8045z" fill="currentColor" fill-rule="evenodd"/></svg>
