<svg xmlns="http://www.w3.org/2000/svg" viewBox="0 0 24 24" fill="none">
<path fill-rule="evenodd" clip-rule="evenodd" d="M3 12.2118C3 17.2875 7.11583 21.4236 12.1667 21.4236C13.4317 21.4236 14.4583 20.3919 14.4583 19.1206C14.4583 18.5587 14.2475 18.0152 13.8717 17.5823C13.7983 17.4901 13.7525 17.3888 13.7525 17.2783C13.7525 17.0203 13.9542 16.8177 14.2108 16.8177H15.8333C18.8675 16.8177 21.3333 14.3397 21.3333 11.2906C21.3333 6.72156 17.2175 3 12.1667 3C7.11583 3 3 7.13609 3 12.2118ZM4.83333 12.2118C4.83333 8.14939 8.12416 4.84236 12.1667 4.84236C16.2092 4.84236 19.5 7.73486 19.5 11.2906C19.5 13.3264 17.8592 14.9753 15.8333 14.9753H14.2108C12.9458 14.9753 11.9192 16.007 11.9192 17.2783C11.9192 17.831 12.1208 18.3745 12.4967 18.7982C12.5517 18.8627 12.625 18.9732 12.625 19.1206C12.625 19.3786 12.4233 19.5812 12.1667 19.5812C8.12416 19.5812 4.83333 16.2742 4.83333 12.2118ZM7.125 10.3694C6.3656 10.3694 5.75 10.9881 5.75 11.7512C5.75 12.5143 6.3656 13.133 7.125 13.133C7.88439 13.133 8.5 12.5143 8.5 11.7512C8.5 10.9881 7.88439 10.3694 7.125 10.3694ZM8.5 8.06648C8.5 7.30335 9.11561 6.68471 9.875 6.68471C10.6344 6.68471 11.25 7.30335 11.25 8.06648C11.25 8.82961 10.6344 9.44825 9.875 9.44825C9.11561 9.44825 8.5 8.82961 8.5 8.06648ZM14.4583 6.68471C13.6989 6.68471 13.0833 7.30335 13.0833 8.06648C13.0833 8.82961 13.6989 9.44825 14.4583 9.44825C15.2177 9.44825 15.8333 8.82961 15.8333 8.06648C15.8333 7.30335 15.2177 6.68471 14.4583 6.68471ZM15.8333 11.7512C15.8333 10.9881 16.4489 10.3694 17.2083 10.3694C17.9677 10.3694 18.5833 10.9881 18.5833 11.7512C18.5833 12.5143 17.9677 13.133 17.2083 13.133C16.4489 13.133 15.8333 12.5143 15.8333 11.7512Z" fill="currentColor"/>
</svg>